<svg id="e1j02f2b9xfqh1" xmlns="http://www.w3.org/2000/svg" xmlns:xlink="http://www.w3.org/1999/xlink" viewBox="0 0 128 133" shape-rendering="geometricPrecision" text-rendering="geometricPrecision"><style><![CDATA[#e1j02f2b9xfqh2 {animation: e1j02f2b9xfqh2_c_o 2000ms linear infinite normal forwards}@keyframes e1j02f2b9xfqh2_c_o { 0% {opacity: 1} 1.500000% {opacity: 0} 54.500000% {opacity: 0} 56% {opacity: 1} 100% {opacity: 1} }#e1j02f2b9xfqh3 {animation: e1j02f2b9xfqh3_c_o 2000ms linear infinite normal forwards}@keyframes e1j02f2b9xfqh3_c_o { 0% {opacity: 1} 1.500000% {opacity: 0} 54.500000% {opacity: 0} 56% {opacity: 1} 100% {opacity: 1} }#e1j02f2b9xfqh4 {animation: e1j02f2b9xfqh4_c_o 2000ms linear infinite normal forwards}@keyframes e1j02f2b9xfqh4_c_o { 0% {opacity: 0} 1.500000% {opacity: 1} 3% {opacity: 0} 53% {opacity: 0} 54.500000% {opacity: 1} 56% {opacity: 0} 100% {opacity: 0} }#e1j02f2b9xfqh5 {animation: e1j02f2b9xfqh5_c_o 2000ms linear infinite normal forwards}@keyframes e1j02f2b9xfqh5_c_o { 0% {opacity: 0} 1.500000% {opacity: 1} 3% {opacity: 0} 53% {opacity: 0} 54.500000% {opacity: 1} 56% {opacity: 0} 100% {opacity: 0} }#e1j02f2b9xfqh6 {animation: e1j02f2b9xfqh6_c_o 2000ms linear infinite normal forwards}@keyframes e1j02f2b9xfqh6_c_o { 0% {opacity: 0} 1.500000% {opacity: 0} 3% {opacity: 1} 4.500000% {opacity: 0} 51.500000% {opacity: 0} 53% {opacity: 1} 54.500000% {opacity: 0} 100% {opacity: 0} }#e1j02f2b9xfqh7 {animation: e1j02f2b9xfqh7_c_o 2000ms linear infinite normal forwards}@keyframes e1j02f2b9xfqh7_c_o { 0% {opacity: 0} 1.500000% {opacity: 0} 3% {opacity: 1} 4.500000% {opacity: 0} 51.500000% {opacity: 0} 53% {opacity: 1} 54.500000% {opacity: 0} 100% {opacity: 0} }#e1j02f2b9xfqh8 {animation: e1j02f2b9xfqh8_c_o 2000ms linear infinite normal forwards}@keyframes e1j02f2b9xfqh8_c_o { 0% {opacity: 0} 3% {opacity: 0} 4.500000% {opacity: 1} 6% {opacity: 0} 50% {opacity: 0} 51.500000% {opacity: 1} 53% {opacity: 0} 100% {opacity: 0} }#e1j02f2b9xfqh9 {animation: e1j02f2b9xfqh9_c_o 2000ms linear infinite normal forwards}@keyframes e1j02f2b9xfqh9_c_o { 0% {opacity: 0} 3% {opacity: 0} 4.500000% {opacity: 1} 6% {opacity: 0} 50% {opacity: 0} 51.500000% {opacity: 1} 53% {opacity: 0} 100% {opacity: 0} }#e1j02f2b9xfqh10 {animation: e1j02f2b9xfqh10_c_o 2000ms linear infinite normal forwards}@keyframes e1j02f2b9xfqh10_c_o { 0% {opacity: 0} 4.500000% {opacity: 0} 6% {opacity: 1} 50% {opacity: 1} 51.500000% {opacity: 0} 100% {opacity: 0} }#e1j02f2b9xfqh11 {animation: e1j02f2b9xfqh11_c_o 2000ms linear infinite normal forwards}@keyframes e1j02f2b9xfqh11_c_o { 0% {opacity: 0} 4.500000% {opacity: 0} 6% {opacity: 1} 50% {opacity: 1} 51.500000% {opacity: 0} 100% {opacity: 0} }]]></style><defs><linearGradient id="e1j02f2b9xfqh2-fill" x1="28.454400" y1="63.713500" x2="105.042000" y2="119.200000" spreadMethod="pad" gradientUnits="userSpaceOnUse"><stop id="e1j02f2b9xfqh2-fill-0" offset="39.584000%" stop-color="rgb(0,0,0)"/><stop id="e1j02f2b9xfqh2-fill-1" offset="100%" stop-color="rgba(0,0,0,0)"/></linearGradient><linearGradient id="e1j02f2b9xfqh3-fill" x1="29.235800" y1="61.761300" x2="103.870000" y2="117.248000" spreadMethod="pad" gradientUnits="userSpaceOnUse"><stop id="e1j02f2b9xfqh3-fill-0" offset="0%" stop-color="rgb(255,255,255)"/><stop id="e1j02f2b9xfqh3-fill-1" offset="100%" stop-color="rgba(255,255,255,0)"/></linearGradient><linearGradient id="e1j02f2b9xfqh4-fill" x1="28.611100" y1="62.724000" x2="103.636000" y2="118.211000" spreadMethod="pad" gradientUnits="userSpaceOnUse"><stop id="e1j02f2b9xfqh4-fill-0" offset="41.145800%" stop-color="rgb(0,0,0)"/><stop id="e1j02f2b9xfqh4-fill-1" offset="100%" stop-color="rgba(0,0,0,0)"/></linearGradient><linearGradient id="e1j02f2b9xfqh5-fill" x1="27.438800" y1="61.942900" x2="102.463000" y2="117.430000" spreadMethod="pad" gradientUnits="userSpaceOnUse"><stop id="e1j02f2b9xfqh5-fill-0" offset="0%" stop-color="rgb(255,255,255)"/><stop id="e1j02f2b9xfqh5-fill-1" offset="100%" stop-color="rgba(255,255,255,0)"/></linearGradient><linearGradient id="e1j02f2b9xfqh6-fill" x1="29.415600" y1="61.239000" x2="104.440000" y2="117.312000" spreadMethod="pad" gradientUnits="userSpaceOnUse"><stop id="e1j02f2b9xfqh6-fill-0" offset="40.104200%" stop-color="rgb(0,0,0)"/><stop id="e1j02f2b9xfqh6-fill-1" offset="100%" stop-color="rgba(0,0,0,0)"/></linearGradient><linearGradient id="e1j02f2b9xfqh7-fill" x1="28.243400" y1="62.020900" x2="105.026000" y2="117.508000" spreadMethod="pad" gradientUnits="userSpaceOnUse"><stop id="e1j02f2b9xfqh7-fill-0" offset="0%" stop-color="rgb(255,255,255)"/><stop id="e1j02f2b9xfqh7-fill-1" offset="100%" stop-color="rgba(255,255,255,0)"/></linearGradient><linearGradient id="e1j02f2b9xfqh8-fill" x1="29.403300" y1="67.627600" x2="105.014000" y2="117.058000" spreadMethod="pad" gradientUnits="userSpaceOnUse"><stop id="e1j02f2b9xfqh8-fill-0" offset="39.062500%" stop-color="rgb(0,0,0)"/><stop id="e1j02f2b9xfqh8-fill-1" offset="100%" stop-color="rgba(0,0,0,0)"/></linearGradient><linearGradient id="e1j02f2b9xfqh9-fill" x1="28.231200" y1="68.018800" x2="105.014000" y2="118.035000" spreadMethod="pad" gradientUnits="userSpaceOnUse"><stop id="e1j02f2b9xfqh9-fill-0" offset="0%" stop-color="rgb(255,255,255)"/><stop id="e1j02f2b9xfqh9-fill-1" offset="100%" stop-color="rgba(255,255,255,0)"/></linearGradient><linearGradient id="e1j02f2b9xfqh10-fill" x1="28.616500" y1="68.602200" x2="105.204000" y2="118.228000" spreadMethod="pad" gradientUnits="userSpaceOnUse"><stop id="e1j02f2b9xfqh10-fill-0" offset="43.229200%" stop-color="rgb(0,0,0)"/><stop id="e1j02f2b9xfqh10-fill-1" offset="100%" stop-color="rgba(0,0,0,0)"/></linearGradient><linearGradient id="e1j02f2b9xfqh11-fill" x1="27.444200" y1="68.602500" x2="104.813000" y2="116.665000" spreadMethod="pad" gradientUnits="userSpaceOnUse"><stop id="e1j02f2b9xfqh11-fill-0" offset="0%" stop-color="rgb(255,255,255)"/><stop id="e1j02f2b9xfqh11-fill-1" offset="100%" stop-color="rgba(255,255,255,0)"/></linearGradient></defs><path id="e1j02f2b9xfqh2" d="M82.107300,50.371600C82.308800,50.484800,82.503200,50.599200,82.690300,50.714500C83.646900,51.303600,84.406800,51.908900,84.956200,52.472100C85.514100,53.044200,85.820700,53.537800,85.928600,53.897700C86.021700,54.207800,86.348400,54.383800,86.658500,54.290700C86.968500,54.197700,87.144500,53.871000,87.051500,53.560900C86.866400,52.944000,86.415800,52.289800,85.795400,51.653600C85.429500,51.278500,84.992300,50.897200,84.489500,50.519900C84.862200,50.574600,85.256800,50.653900,85.659600,50.765400C86.982300,51.131700,88.354500,51.833900,89.348800,53.112300C89.967000,53.907100,90.528100,55.168800,91.057300,56.826100C91.582700,58.471500,92.060300,60.451900,92.535600,62.645400C92.831200,64.009800,93.125900,65.457400,93.430300,66.952300C94.099800,70.240900,94.816000,73.759000,95.691600,77.126600C96.184700,79.023000,97.582600,81.059300,99.436100,83.092300C101.301000,85.138100,103.681000,87.237300,106.219000,89.257000C110.984000,93.048100,116.357000,96.598500,120.037000,99.030200C120.278000,99.189500,120.512000,99.344000,120.738000,99.493400C121.597000,100.062000,121.763000,101.250000,121.088000,102.047000L106.963000,118.740000C106.371000,119.440000,105.352000,119.569000,104.614000,119.039000C103.607000,118.317000,102.463000,117.492000,101.220000,116.597000C97.206900,113.706000,92.174800,110.081000,87.489800,106.807000C84.422100,104.664000,81.497800,102.667000,79.101600,101.123000C77.903700,100.351000,76.833200,99.689300,75.940000,99.177900C75.056800,98.672300,74.315400,98.295000,73.786900,98.112000C71.323500,97.259300,67.810400,95.244500,64.451800,92.932400C61.096200,90.622400,57.964800,88.064100,56.251600,86.160500C53.440100,83.036600,50.495600,80.645500,47.662200,78.344500C46.914100,77.737000,46.173600,77.135700,45.445400,76.528900C44.549700,75.782400,43.656900,75.125500,42.808200,74.515800C42.614500,74.376600,42.423700,74.240300,42.235900,74.106200C41.595300,73.648700,40.989400,73.215900,40.421400,72.778300C38.953500,71.647300,37.829300,70.549100,37.206000,69.124500C35.693400,65.667200,33.107900,64.485700,31.026900,63.357800C30.915200,63.297300,30.805400,63.237700,30.697600,63.179000C29.035200,62.272200,29.099700,59.455400,31.524500,58.794800C38.408300,57.504100,43.087800,62.153800,44.612500,64.059700C45.460300,65.119500,47.294800,66.483300,49.025400,67.604500C49.903300,68.173300,50.777100,68.694100,51.521500,69.098900C52.248900,69.494600,52.898900,69.805500,53.310400,69.923000C53.713100,70.038100,54.235500,70.108700,54.764300,70.065800C55.289700,70.023200,55.876300,69.863400,56.343900,69.462600C57.353200,68.597400,57.441500,67.005800,56.348700,64.621600C54.102700,59.721200,48.631300,55.518700,40.861100,54.322300L40.854200,54.321200L40.847200,54.320300C35.592700,53.639600,32.478000,52.627300,30.663600,51.432600C29.766400,50.841800,29.197000,50.212600,28.837900,49.562700C28.478200,48.911800,28.311800,48.208100,28.266700,47.442800C28.223000,46.700100,28.369300,46.229900,28.598600,45.923700C28.826800,45.619000,29.200000,45.393000,29.782400,45.265800C30.987000,45.002900,32.824500,45.216200,35.181900,45.706600C36.854200,46.054500,39.453200,46.080200,42.077600,46.106300C42.304500,46.108500,42.531600,46.110800,42.758300,46.113200C45.666200,46.144800,48.526000,46.210100,50.398500,46.678300C50.395600,46.677500,50.402000,46.679100,50.425700,46.686000C50.446200,46.691900,50.474000,46.700100,50.508900,46.710400C50.578500,46.731100,50.673100,46.759500,50.788500,46.794500C51.019100,46.864300,51.329900,46.959300,51.684800,47.068000C52.394400,47.285400,53.277800,47.557400,54.042400,47.792900L54.396500,47.902000C55.001300,48.088300,55.489800,48.238800,55.686400,48.298800C55.715700,48.307800,55.739200,48.314900,55.755800,48.319900L55.777600,48.326400L55.788700,48.329600C55.790700,48.330200,55.794500,48.331300,55.799200,48.332500L55.810900,48.335500C55.816500,48.336800,55.832700,48.340400,55.843400,48.342500C55.848400,48.343300,55.860600,48.343100,55.878500,48.341500C58.714600,49.206900,61.962400,50.382900,64.999500,51.482600C65.798300,51.771800,66.582500,52.055700,67.340800,52.327300C67.645500,52.436500,67.981100,52.278000,68.090200,51.973200C68.199400,51.668500,68.040900,51.332900,67.736100,51.223800C66.987900,50.955700,66.210900,50.674400,65.416800,50.386800C63.293100,49.617800,61.047800,48.804700,58.906900,48.085400C60.190300,48.014100,61.449600,47.880900,62.676100,47.736400C63.073800,47.689600,63.467300,47.641700,63.856800,47.594200C65.892900,47.346400,67.819800,47.111800,69.659100,47.111800C71.836700,47.111800,73.835600,47.443000,75.658200,48.449000C77.477500,49.453100,79.175900,51.159900,80.698000,54.005800C80.850700,54.291200,81.205900,54.398800,81.491300,54.246200C81.776800,54.093500,81.884400,53.738300,81.731700,53.452900C80.597600,51.332500,79.343400,49.763900,77.978000,48.625100C79.560500,49.112500,80.942100,49.718000,82.094000,50.364000C82.098400,50.366600,82.102800,50.369100,82.107300,50.371600Z" clip-rule="evenodd" fill="url(#e1j02f2b9xfqh2-fill)" fill-rule="evenodd" stroke="none" stroke-width="1"/><path id="e1j02f2b9xfqh3" d="M29.532200,44.122200C31.012500,43.799000,33.082500,44.074200,35.420500,44.560500C36.973300,44.883500,39.456900,44.908800,42.140400,44.936100C42.349400,44.938200,42.559700,44.940400,42.770800,44.942700C45.633000,44.973800,48.647700,45.033900,50.682700,45.542600C50.842000,45.582500,52.876200,46.208800,54.387300,46.674200L54.742000,46.783500C54.871700,46.823400,54.995900,46.861700,55.113000,46.897700C57.626500,47.091000,60.104700,46.860600,62.538800,46.573800C62.925300,46.528300,63.311500,46.481200,63.696800,46.434300C65.731500,46.186200,67.741900,45.941100,69.659000,45.941100C71.419200,45.941100,73.133600,46.146300,74.765000,46.754600C74.857200,46.721400,74.959100,46.711000,75.062600,46.728900C78.038000,47.243700,80.562700,48.186700,82.517700,49.260200C83.316900,49.209400,84.601700,49.257800,85.972200,49.637300C87.456500,50.048300,89.080000,50.859200,90.273900,52.394200C91.023400,53.357800,91.634600,54.782500,92.173800,56.471100C92.716800,58.171500,93.203900,60.196300,93.681100,62.398800C93.983000,63.792100,94.280900,65.255900,94.587100,66.759800C95.253400,70.033200,95.958300,73.496100,96.826000,76.833300C97.245500,78.446900,98.484100,80.310000,100.302000,82.304100C102.108000,84.285400,104.435000,86.340800,106.949000,88.341300C111.671000,92.098700,117.004000,95.622900,120.689000,98.057700C120.928000,98.215600,121.160000,98.368900,121.384000,98.517400C122.841000,99.480900,123.103000,101.483000,121.983000,102.806000L107.858000,119.499000C106.876000,120.659000,105.171000,120.884000,103.930000,119.993000C102.921000,119.269000,101.773000,118.442000,100.529000,117.546000C96.516700,114.655000,91.495300,111.038000,86.818200,107.770000C83.754700,105.629000,80.844400,103.642000,78.466400,102.110000C77.277200,101.344000,76.225700,100.694000,75.357400,100.197000C74.479100,99.694000,73.819600,99.365600,73.403300,99.221400C70.786900,98.315800,67.168800,96.227700,63.786900,93.899600C60.402000,91.569400,57.183600,88.950300,55.380100,86.946300C52.635900,83.897200,49.780800,81.578100,46.956400,79.283800C46.199400,78.669000,45.444600,78.055900,44.694800,77.431000C43.832100,76.712100,42.966600,76.074700,42.124000,75.469400C41.937100,75.335100,41.750600,75.202000,41.565400,75.069700C40.921500,74.609800,40.292200,74.160400,39.705800,73.708500C38.194200,72.543800,36.876200,71.297400,36.131800,69.596000C34.910800,66.805000,32.529000,65.510500,30.411700,64.359700C30.319300,64.309500,30.227400,64.259500,30.136100,64.209700C27.504800,62.774500,27.813100,58.570800,31.242900,57.658200L31.263700,57.652700L31.284700,57.648700C38.846800,56.218000,43.928000,61.329400,45.527700,63.329000C46.242900,64.223000,47.925200,65.496700,49.662600,66.622300C50.518600,67.176900,51.366600,67.682000,52.081400,68.070800C52.813200,68.468800,53.359900,68.719700,53.632200,68.797500C53.913400,68.877800,54.294500,68.929400,54.669400,68.899000C55.047600,68.868300,55.364600,68.759500,55.580800,68.574100C55.939100,68.267000,56.339300,67.416500,55.282900,65.111600C53.231300,60.635300,48.141900,56.633100,40.689400,55.483600C35.391200,54.796600,32.060500,53.757800,30.018700,52.413200C28.987300,51.734100,28.275800,50.971200,27.811700,50.131300C27.348100,49.292400,27.149000,48.408700,27.096300,47.513300C27.042300,46.595400,27.212700,45.820100,27.660200,45.222600C28.108700,44.623700,28.772200,44.288100,29.532200,44.122200ZM82.107100,50.373200C82.308600,50.486400,82.503000,50.600800,82.690200,50.716100C83.646700,51.305200,84.406700,51.910500,84.956000,52.473700C85.513900,53.045800,85.820500,53.539400,85.928500,53.899400C86.021500,54.209400,86.348200,54.385400,86.658300,54.292400C86.968300,54.199300,87.144300,53.872600,87.051300,53.562500C86.866200,52.945600,86.415600,52.291400,85.795200,51.655200C85.429300,51.280100,84.992200,50.898800,84.489400,50.521600C84.862000,50.576200,85.256600,50.655500,85.659400,50.767100C86.982100,51.133300,88.354300,51.835500,89.348600,53.113900C89.966800,53.908700,90.527900,55.170500,91.057100,56.827700C91.582500,58.473100,92.060200,60.453500,92.535400,62.647000C92.831000,64.011400,93.125700,65.459000,93.430100,66.953900C94.099600,70.242500,94.815800,73.760600,95.691400,77.128200C96.184500,79.024600,97.582400,81.060900,99.435900,83.093900C101.301000,85.139700,103.681000,87.238900,106.219000,89.258600C110.984000,93.049700,116.357000,96.600100,120.037000,99.031800C120.278000,99.191100,120.511000,99.345600,120.737000,99.495000C121.597000,100.064000,121.763000,101.251000,121.088000,102.048000L106.963000,118.742000C106.371000,119.441000,105.352000,119.570000,104.614000,119.041000C103.607000,118.319000,102.462000,117.494000,101.220000,116.599000C97.206700,113.708000,92.174600,110.083000,87.489600,106.809000C84.421900,104.665000,81.497700,102.668000,79.101400,101.124000C77.903500,100.353000,76.833000,99.690900,75.939800,99.179500C75.056700,98.673900,74.315200,98.296600,73.786700,98.113700C71.323300,97.260900,67.810200,95.246100,64.451600,92.934000C61.096000,90.624000,57.964600,88.065700,56.251400,86.162100C53.439900,83.038200,50.495400,80.647100,47.662100,78.346200C46.913900,77.738600,46.173400,77.137300,45.445300,76.530500C44.549600,75.784100,43.656700,75.127100,42.808000,74.517400C42.614300,74.378200,42.423500,74.242000,42.235700,74.107800C41.595100,73.650300,40.989200,73.217500,40.421200,72.779900C38.953300,71.648900,37.829100,70.550700,37.205800,69.126100C35.693200,65.668800,33.107700,64.487300,31.026700,63.359400C30.915000,63.298900,30.805200,63.239400,30.697400,63.180600C29.035100,62.273800,29.099600,59.457000,31.524300,58.796400C38.408200,57.505700,43.087600,62.155400,44.612300,64.061300C45.460100,65.121100,47.294700,66.485000,49.025200,67.606200C49.903100,68.175000,50.776900,68.695700,51.521300,69.100600C52.248700,69.496200,52.898700,69.807100,53.310200,69.924700C53.712900,70.039700,54.235400,70.110300,54.764100,70.067400C55.289500,70.024800,55.876100,69.865000,56.343700,69.464200C57.353100,68.599000,57.441300,67.007400,56.348600,64.623200C54.102500,59.722800,48.631100,55.520300,40.860900,54.323900L40.854000,54.322800L40.847000,54.321900C35.592500,53.641200,32.477800,52.628900,30.663400,51.434200C29.766200,50.843400,29.196800,50.214200,28.837700,49.564300C28.478000,48.913500,28.311600,48.209700,28.266600,47.444500C28.222900,46.701700,28.369200,46.231500,28.598400,45.925300C28.826600,45.620600,29.199800,45.394600,29.782200,45.267500C30.986800,45.004500,32.824300,45.217800,35.181800,45.708200C36.854000,46.056100,39.453000,46.081900,42.077400,46.107900C42.304300,46.110200,42.531400,46.112400,42.758100,46.114900C45.666000,46.146500,48.525800,46.211700,50.398300,46.679900C50.395400,46.679100,50.401800,46.680800,50.425500,46.687600C50.446100,46.693500,50.473800,46.701700,50.508700,46.712000C50.578300,46.732700,50.672900,46.761200,50.788300,46.796100C51.018900,46.866000,51.329800,46.960900,51.684600,47.069600C52.394200,47.287100,53.277700,47.559000,54.042200,47.794500L54.396400,47.903600C55.001100,48.089900,55.489600,48.240400,55.686300,48.300400C55.715500,48.309400,55.739000,48.316500,55.755600,48.321500L55.777400,48.328000L55.788500,48.331300C55.790500,48.331800,55.794400,48.332900,55.799100,48.334200L55.810700,48.337100C55.816300,48.338500,55.832500,48.342000,55.843200,48.344100C55.848200,48.344900,55.860400,48.344700,55.878300,48.343100C58.714400,49.208500,61.962200,50.384500,64.999400,51.484200C65.798100,51.773400,66.582300,52.057300,67.340600,52.329000C67.645400,52.438100,67.980900,52.279600,68.090100,51.974800C68.199200,51.670100,68.040700,51.334500,67.735900,51.225400C66.987700,50.957400,66.210700,50.676000,65.416700,50.388500C63.293000,49.619400,61.047700,48.806400,58.906700,48.087000C60.190100,48.015800,61.449500,47.882500,62.675900,47.738000C63.073600,47.691200,63.467100,47.643300,63.856700,47.595900C65.892700,47.348000,67.819600,47.113400,69.659000,47.113400C71.836500,47.113400,73.835400,47.444600,75.658100,48.450600C77.477300,49.454700,79.175700,51.161600,80.697900,54.007400C80.850500,54.292800,81.205700,54.400500,81.491100,54.247800C81.776600,54.095100,81.884200,53.739900,81.731500,53.454500C80.597400,51.334100,79.343300,49.765500,77.977800,48.626700C79.560300,49.114100,80.941900,49.719600,82.093800,50.365700C82.098200,50.368200,82.102700,50.370700,82.107100,50.373200Z" clip-rule="evenodd" fill="url(#e1j02f2b9xfqh3-fill)" fill-rule="evenodd" stroke="none" stroke-width="1"/><path id="e1j02f2b9xfqh4" d="M82.435500,49.939300C82.641300,50.067400,82.836800,50.197200,83.022400,50.327900C84.644100,51.470400,85.467100,52.662500,85.710200,53.472700C85.803200,53.782700,86.129900,53.958700,86.440000,53.865700C86.750000,53.772600,86.926000,53.445900,86.833000,53.135800C86.555300,52.210200,85.822000,51.125000,84.622500,50.089800C86.047000,50.310700,87.801100,50.978300,89.130300,52.687200C89.748500,53.482000,90.309600,54.743800,90.838800,56.401000C91.364200,58.046400,91.841800,60.026800,92.317100,62.220400C92.612700,63.584800,92.907400,65.032300,93.211800,66.527300C93.881300,69.815900,94.597500,73.334000,95.473100,76.701600C95.965400,78.594900,97.348500,80.598600,99.181000,82.584400C101.025000,84.582400,103.375000,86.617600,105.884000,88.571100C110.356000,92.053900,115.377000,95.313900,119.010000,97.672100C119.451000,97.958900,119.873000,98.232300,120.270000,98.491200C121.140000,99.058400,121.300000,100.259000,120.604000,101.055000L105.957000,117.793000C105.362000,118.474000,104.356000,118.593000,103.627000,118.070000C102.610000,117.340000,101.457000,116.510000,100.210000,115.610000C96.294200,112.789000,91.442900,109.293000,86.926500,106.138000C83.948600,104.058000,81.110600,102.122000,78.778000,100.623000C76.470900,99.140400,74.593300,98.041600,73.568400,97.686900C71.105000,96.834100,67.591900,94.819300,64.233300,92.507300C60.877700,90.197300,57.746300,87.639100,56.033100,85.735500C53.221600,82.611600,50.277100,80.220400,47.443700,77.919500C46.695600,77.311900,45.955100,76.710700,45.227000,76.103900C44.331300,75.357500,43.438400,74.700500,42.589700,74.090800C42.396000,73.951600,42.205200,73.815300,42.017400,73.681200C41.376800,73.223700,40.770900,72.790900,40.202900,72.353300C38.735000,71.222300,37.610800,70.124100,36.987500,68.699500C35.600900,65.530200,32.889300,64.060500,30.808200,62.932600C30.696600,62.872100,30.586800,62.812600,30.479100,62.753900C28.816800,61.847100,28.881300,59.030300,31.306000,58.369700C38.189900,57.079000,42.869300,61.728700,44.394000,63.634600C45.241900,64.694400,47.076400,66.058300,48.806900,67.179500C49.684800,67.748300,50.558600,68.269000,51.303000,68.673900C52.030500,69.069600,52.680400,69.380500,53.091900,69.498000C53.494600,69.613100,54.017100,69.683600,54.545800,69.640800C55.071200,69.598200,55.657800,69.438400,56.125400,69.037500C57.134800,68.172400,57.223000,66.580700,56.130300,64.196500C55.050400,61.840600,53.264800,58.233200,50.775500,55.060600C48.294600,51.898700,45.047000,49.082000,41.022400,48.462300L41.015500,48.461200L41.008500,48.460300C35.754000,47.779600,32.639300,46.767300,30.824900,45.572600C29.927700,44.981800,29.358300,44.352600,28.999200,43.702700C28.639500,43.051800,28.473100,42.348100,28.428000,41.582800C28.381900,40.797700,28.469200,40.275900,28.635500,39.931600C28.788300,39.615100,29.027900,39.405300,29.418200,39.275100C29.834500,39.136300,30.421300,39.090100,31.230200,39.151900C32.032400,39.213100,33.005500,39.375900,34.171200,39.618400C35.762900,39.949500,38.261600,40.189900,40.847800,40.438800C41.162700,40.469000,41.478900,40.499500,41.794900,40.530200C44.742200,40.816700,47.680400,41.130000,49.583200,41.605700C50.659700,41.874900,51.503500,42.429600,52.688500,43.208600C52.772300,43.263700,52.857700,43.319900,52.945200,43.377200C54.255300,44.236200,55.906700,45.274900,58.502100,46.273100L58.526000,46.282300L58.550500,46.289300C60.334100,46.802200,61.462900,47.653300,62.682700,48.603000C62.719800,48.631800,62.756900,48.660800,62.794200,48.689800C63.987800,49.619900,65.285100,50.630800,67.307700,51.355300C67.612500,51.464500,67.948000,51.306000,68.057200,51.001200C68.166400,50.696500,68.007800,50.360900,67.703000,50.251700C65.859100,49.591200,64.688500,48.679400,63.492000,47.747400C63.462300,47.724300,63.432600,47.701100,63.402800,47.678000C62.846800,47.245000,62.281100,46.808900,61.642800,46.407300C63.104000,46.392300,64.462100,46.294600,65.729800,46.194600C65.879700,46.182800,66.028100,46.170900,66.175200,46.159200C68.094600,46.006300,69.772700,45.872600,71.337700,46.021000C72.843300,46.163800,74.225400,46.567700,75.566800,47.474800C75.573500,47.479600,75.580400,47.484300,75.587400,47.488800C75.718200,47.577800,75.848600,47.671500,75.978600,47.770300C77.461200,48.896200,78.939600,50.701500,80.479600,53.580700C80.632200,53.866100,80.987400,53.973800,81.272800,53.821100C81.558300,53.668400,81.665900,53.313200,81.513200,53.027800C80.375600,50.900800,79.243200,49.289900,78.079900,48.082800C79.858400,48.578800,81.295800,49.231400,82.425800,49.933300C82.429000,49.935300,82.432200,49.937300,82.435500,49.939300Z" opacity="0" clip-rule="evenodd" fill="url(#e1j02f2b9xfqh4-fill)" fill-rule="evenodd" stroke="none" stroke-width="1"/><path id="e1j02f2b9xfqh5" d="M31.319300,37.983500C32.196800,38.050400,33.227900,38.225300,34.409900,38.471200C35.933600,38.788200,38.360900,39.021900,40.969900,39.273200C41.280500,39.303100,41.593700,39.333300,41.908300,39.363900C44.828800,39.647800,47.862700,39.967700,49.867400,40.468900C51.145700,40.788500,52.152900,41.452100,53.293000,42.203400C53.390200,42.267500,53.488400,42.332200,53.587800,42.397300C54.852700,43.226700,56.405000,44.202800,58.843400,45.148700C61.348400,45.338700,63.578400,45.188800,65.637500,45.026400C65.795200,45.014000,65.952100,45.001400,66.108200,44.989000C67.997300,44.838000,69.776300,44.695800,71.448300,44.854400C73.080100,45.009200,74.627800,45.450400,76.128900,46.441000C78.975500,46.947400,81.206000,47.827700,82.884100,48.839900C84.493400,48.738700,87.787300,49.051600,90.055600,51.968000C90.805000,52.931600,91.416200,54.356200,91.955400,56.044900C92.498500,57.745300,92.985500,59.770100,93.462700,61.972600C93.764600,63.365900,94.062600,64.829700,94.368700,66.333500C95.035000,69.607000,95.739900,73.069900,96.607600,76.407100C97.025900,78.016100,98.248700,79.846000,100.042000,81.789900C101.825000,83.721800,104.121000,85.712600,106.604000,87.646700C111.033000,91.096100,116.010000,94.327700,119.647000,96.688600C120.089000,96.975500,120.511000,97.249600,120.910000,97.509600C122.392000,98.476100,122.639000,100.509000,121.486000,101.827000L106.840000,118.566000C105.851000,119.696000,104.169000,119.902000,102.943000,119.023000C101.923000,118.291000,100.768000,117.458000,99.518700,116.558000C95.604100,113.737000,90.763700,110.249000,86.255200,107.099000C83.281600,105.022000,80.457900,103.096000,78.144100,101.610000C75.804800,100.106000,74.051100,99.094900,73.184900,98.795100C70.568500,97.889400,66.950400,95.801400,63.568500,93.473300C60.183600,91.143200,56.965300,88.524100,55.161700,86.520100C52.417500,83.471000,49.562400,81.151900,46.738000,78.857700C45.981000,78.242800,45.226300,77.629700,44.476400,77.004900C43.613700,76.285900,42.748200,75.648500,41.905700,75.043300C41.718700,74.909000,41.532300,74.775800,41.347100,74.643600C40.703200,74.183700,40.073900,73.734200,39.487400,73.282300C37.975800,72.117600,36.657800,70.871300,35.913500,69.169800C34.692300,66.378700,32.310400,65.084100,30.193100,63.933300C30.100800,63.883100,30.008900,63.833200,29.917700,63.783400C27.286400,62.348200,27.594800,58.144500,31.024600,57.231900L31.045300,57.226400L31.066300,57.222400C38.628500,55.791800,43.709700,60.903100,45.309400,62.902700C46.024600,63.796700,47.706800,65.070500,49.444200,66.196100C50.300300,66.750700,51.148200,67.255800,51.863100,67.644600C52.594800,68.042600,53.141500,68.293500,53.413900,68.371300C53.695000,68.451700,54.076100,68.503200,54.451000,68.472800C54.829200,68.442100,55.146300,68.333300,55.362500,68.148000C55.720700,67.840800,56.120900,66.990200,55.064500,64.685400C53.995200,62.352300,52.255400,58.846300,49.853200,55.784600C47.444000,52.714200,44.436400,50.177100,40.850800,49.622400C35.552600,48.935500,32.221900,47.896600,30.180100,46.552100C29.148700,45.872900,28.437200,45.110100,27.973100,44.270200C27.509500,43.431300,27.310400,42.547600,27.257700,41.652100C27.206200,40.776600,27.289000,40.024400,27.579800,39.422300C27.883900,38.792400,28.388100,38.383400,29.047200,38.163600C29.680300,37.952300,30.448600,37.917000,31.319300,37.983500ZM82.435400,49.939800C82.641200,50.067900,82.836800,50.197600,83.022300,50.328300C84.644000,51.470800,85.467000,52.663000,85.710100,53.473100C85.803100,53.783200,86.129900,53.959100,86.439900,53.866100C86.750000,53.773100,86.925900,53.446300,86.832900,53.136300C86.555200,52.210600,85.821900,51.125500,84.622500,50.090300C86.046900,50.311200,87.801000,50.978700,89.130200,52.687700C89.748400,53.482500,90.309500,54.744200,90.838700,56.401500C91.364200,58.046900,91.841800,60.027300,92.317000,62.220800C92.612700,63.585200,92.907400,65.032800,93.211700,66.527700C93.881200,69.816300,94.597500,73.334400,95.473100,76.702100C95.965300,78.595400,97.348500,80.599000,99.180900,82.584900C101.024000,84.582800,103.375000,86.618100,105.884000,88.571500C110.356000,92.054300,115.377000,95.314300,119.010000,97.672600C119.451000,97.959400,119.873000,98.232800,120.270000,98.491700C121.140000,99.058800,121.300000,100.260000,120.604000,101.055000L105.957000,117.794000C105.362000,118.475000,104.356000,118.594000,103.627000,118.070000C102.610000,117.341000,101.457000,116.510000,100.210000,115.611000C96.294200,112.789000,91.442800,109.293000,86.926500,106.138000C83.948500,104.058000,81.110500,102.122000,78.777900,100.623000C76.470800,99.140800,74.593200,98.042100,73.568400,97.687300C71.105000,96.834600,67.591800,94.819800,64.233200,92.507800C60.877600,90.197800,57.746300,87.639500,56.033000,85.735900C53.221500,82.612000,50.277000,80.220900,47.443600,77.920000C46.695500,77.312400,45.955100,76.711100,45.226900,76.104300C44.331200,75.357900,43.438300,74.700900,42.589600,74.091200C42.395900,73.952100,42.205100,73.815800,42.017300,73.681600C41.376800,73.224100,40.770900,72.791400,40.202900,72.353700C38.735000,71.222700,37.610700,70.124600,36.987400,68.700000C35.600900,65.530700,32.889200,64.061000,30.808100,62.933000C30.696500,62.872500,30.586700,62.813100,30.479100,62.754300C28.816700,61.847600,28.881200,59.030700,31.305900,58.370200C38.189800,57.079400,42.869200,61.729100,44.394000,63.635000C45.241800,64.694800,47.076300,66.058700,48.806800,67.179900C49.684800,67.748800,50.558600,68.269500,51.302900,68.674400C52.030400,69.070100,52.680400,69.380900,53.091800,69.498500C53.494500,69.613500,54.017000,69.684100,54.545800,69.641200C55.071200,69.598600,55.657700,69.438800,56.125400,69.038000C57.134700,68.172800,57.223000,66.581200,56.130200,64.197000C55.050400,61.841000,53.264700,58.233600,50.775400,55.061000C48.294600,51.899200,45.047000,49.082400,41.022400,48.462700L41.015400,48.461700L41.008500,48.460800C35.754000,47.780000,32.639200,46.767800,30.824800,45.573000C29.927600,44.982200,29.358200,44.353000,28.999100,43.703200C28.639400,43.052300,28.473000,42.348600,28.428000,41.583300C28.381800,40.798100,28.469200,40.276300,28.635400,39.932000C28.788200,39.615600,29.027800,39.405800,29.418100,39.275600C29.834400,39.136700,30.421200,39.090600,31.230100,39.152300C32.032300,39.213500,33.005500,39.376400,34.171200,39.618900C35.762800,39.950000,38.261600,40.190400,40.847700,40.439200C41.162600,40.469500,41.478800,40.499900,41.794800,40.530600C44.742100,40.817200,47.680400,41.130500,49.583100,41.606200C50.659700,41.875300,51.503400,42.430000,52.688400,43.209100C52.772200,43.264200,52.857700,43.320400,52.945100,43.377700C54.255200,44.236700,55.906600,45.275300,58.502100,46.273500L58.525900,46.282700L58.550500,46.289800C60.334000,46.802700,61.462800,47.653700,62.682600,48.603400C62.719700,48.632300,62.756900,48.661200,62.794100,48.690200C63.987700,49.620400,65.285000,50.631300,67.307700,51.355800C67.612400,51.465000,67.948000,51.306400,68.057100,51.001700C68.166300,50.696900,68.007700,50.361400,67.703000,50.252200C65.859000,49.591700,64.688500,48.679900,63.491900,47.747900C63.462200,47.724700,63.432500,47.701600,63.402800,47.678400C62.846700,47.245500,62.281000,46.809300,61.642700,46.407800C63.103900,46.392700,64.462000,46.295000,65.729700,46.195100C65.879600,46.183200,66.028100,46.171400,66.175100,46.159700C68.094600,46.006700,69.772600,45.873000,71.337600,46.021500C72.843200,46.164300,74.225300,46.568200,75.566700,47.475300C75.573500,47.480100,75.580300,47.484700,75.587300,47.489300C75.718100,47.578200,75.848500,47.672000,75.978600,47.770800C77.461100,48.896600,78.939500,50.702000,80.479500,53.581100C80.632200,53.866600,80.987300,53.974200,81.272800,53.821500C81.558200,53.668900,81.665800,53.313700,81.513200,53.028300C80.375500,50.901300,79.243200,49.290400,78.079800,48.083300C79.858300,48.579300,81.295700,49.231800,82.425700,49.933800C82.428900,49.935800,82.432200,49.937800,82.435400,49.939800Z" opacity="0" clip-rule="evenodd" fill="url(#e1j02f2b9xfqh5-fill)" fill-rule="evenodd" stroke="none" stroke-width="1"/><path id="e1j02f2b9xfqh6" d="M62.717000,46.258900C63.100600,46.688600,63.466600,47.094200,63.824500,47.469200C65.068400,48.772400,66.327100,49.841000,68.189000,50.678800C68.484200,50.811700,68.615800,51.158700,68.483000,51.453900C68.350200,51.749100,68.003200,51.880700,67.708000,51.747800C65.662300,50.827300,64.283400,49.647700,62.976600,48.278600C62.470200,47.748100,61.989700,47.207500,61.490900,46.646200C60.675800,45.729100,59.811500,44.756600,58.704800,43.682700C58.207400,43.200000,57.750000,42.746900,57.319300,42.320100C55.227100,40.247400,53.762600,38.796600,51.380700,37.592200C50.893500,37.345900,50.343200,37.072100,49.749700,36.776800C46.758100,35.288300,42.668700,33.253700,40.024500,31.433700C39.783800,31.268000,39.539500,31.090500,39.290600,30.909700C38.772000,30.532900,38.233500,30.141600,37.665900,29.812600C36.818100,29.321300,36.112100,29.101200,35.571000,29.236500C34.449700,29.516800,33.140400,31.088600,34.128500,34.088700C34.353800,34.772700,34.929500,35.637500,35.809500,36.618500C36.679200,37.588100,37.805800,38.627300,39.073500,39.660600C41.609700,41.727800,44.278700,44.128800,46.878700,45.477000C48.220900,46.172900,50.036400,48.434900,52.182800,50.855400C54.303700,53.247200,56.818500,55.462600,58.035900,58.525800C58.070500,58.578500,58.035900,58.624500,58.113600,58.702300C59.009300,62.202200,59.552800,64.136300,59.308900,66.656700C59.198800,67.794300,58.952900,68.664300,58.543200,69.286000C58.114900,69.935700,57.529700,70.279400,56.852400,70.383500C56.208700,70.482500,55.511900,70.361000,54.826500,70.164700C54.143300,69.969100,53.407300,69.679000,52.669600,69.388000C52.431900,69.315300,52.163400,69.178200,51.893400,69.018600C51.602500,68.846800,51.273500,68.626800,50.922300,68.374500C50.219300,67.869400,49.403700,67.217900,48.587400,66.521900C46.964100,65.137800,45.287800,64.534300,44.470200,63.512300C42.945500,61.606400,38.266000,56.956700,31.382100,58.247500C28.957400,58.908000,28.892900,61.724900,30.555300,62.631600C30.663000,62.690300,30.772700,62.749800,30.884300,62.810300C32.965400,63.938300,35.677100,65.408000,37.063700,68.577300C37.686900,70.001800,38.811200,71.100000,40.279100,72.231000C40.847100,72.668600,41.453000,73.101400,42.093500,73.558900C42.281400,73.693100,42.472200,73.829300,42.665900,73.968500C43.514600,74.578200,44.407400,75.235200,45.303100,75.981600C46.031300,76.588400,46.771700,77.189600,47.519800,77.797200C50.353200,80.098100,53.297800,82.489300,56.109300,85.613200C57.822500,87.516800,60.953900,90.075100,64.309500,92.385000C67.668000,94.697100,71.181200,96.711900,73.644600,97.564600C74.666300,97.918200,76.573400,99.014500,78.928800,100.497000C81.309300,101.995000,84.212000,103.930000,87.257400,106.010000C93.349000,110.170000,100.029000,114.922000,104.275000,117.943000C105.011000,118.467000,106.022000,118.344000,106.617000,117.657000L121.089000,100.933000C121.778000,100.137000,121.614000,98.943800,120.747000,98.383300C120.243000,98.057600,119.699000,97.708600,119.123000,97.338800L119.121000,97.337300C115.482000,95.001100,110.552000,91.836200,106.143000,88.462500C103.588000,86.507800,101.193000,84.470900,99.315700,82.471200C97.450500,80.484200,96.042800,78.477400,95.549300,76.579400C94.673700,73.211700,93.957400,69.693600,93.287900,66.405000C92.983600,64.910000,92.688900,63.462500,92.393300,62.098100C91.918000,59.904600,91.440400,57.924100,90.914900,56.278700C90.385700,54.621500,89.824600,53.359800,89.206500,52.565000C87.829600,50.794700,86.176600,50.143800,84.845700,49.946700C85.987800,50.994200,86.631500,52.088300,86.909100,53.013600C87.002100,53.323600,86.826200,53.650400,86.516100,53.743400C86.206100,53.836400,85.879300,53.660500,85.786300,53.350400C85.337700,51.855100,83.434900,49.304700,78.412000,47.973700C79.417900,49.177200,80.454400,50.783500,81.589400,52.905500C81.742100,53.191000,81.634400,53.546100,81.349000,53.698800C81.063500,53.851500,80.708400,53.743900,80.555700,53.458400C79.004500,50.558300,77.693600,48.742500,76.461000,47.614000C76.428400,47.584100,76.395800,47.554700,76.363200,47.525800C76.222000,47.477300,76.108300,47.377700,76.039700,47.252300C74.980100,46.402500,73.954500,46.032300,72.832000,45.898700C71.650400,45.758000,70.365300,45.876900,68.771400,46.024300C68.594700,46.040700,68.414100,46.057400,68.229500,46.074100C66.665000,46.216000,64.859600,46.352800,62.717000,46.258900Z" opacity="0" clip-rule="evenodd" fill="url(#e1j02f2b9xfqh6-fill)" fill-rule="evenodd" stroke="none" stroke-width="1"/><path id="e1j02f2b9xfqh7" d="M40.689100,30.468600C40.495800,30.335500,40.278500,30.177800,40.045000,30.008400C39.503100,29.615000,38.873700,29.158200,38.253700,28.798900C37.374300,28.289200,36.308500,27.844200,35.286600,28.099700C33.281900,28.600900,31.893000,31.049200,33.015000,34.455900C33.317300,35.373700,34.024400,36.384600,34.936800,37.401800C35.859500,38.430400,37.034900,39.511700,38.332800,40.569700C40.928000,42.685000,43.663900,44.740300,46.339100,46.127400C47.489400,46.723900,49.190700,49.248600,51.305600,51.633600C53.410200,54.007100,55.865300,56.164400,57.003300,59.104200C57.005700,59.110300,57.008100,59.116200,57.010600,59.122100C57.844700,62.438100,58.369400,64.194700,58.142100,66.544300C58.040300,67.596000,57.823500,68.248200,57.564400,68.641300C57.323700,69.006300,57.033800,69.170000,56.674200,69.225300C56.281100,69.285800,55.779300,69.218700,55.149200,69.038200C54.524000,68.859200,53.835700,68.588300,53.076000,68.288600L53.049400,68.278200L53.021900,68.270300C52.925100,68.242600,52.749600,68.163400,52.489700,68.009900C52.239000,67.861800,51.940700,67.663200,51.606200,67.422900C50.937700,66.942700,50.148600,66.313100,49.348000,65.630400C47.737400,64.257000,46.130900,63.712200,45.385500,62.780500C43.785900,60.780900,38.704700,55.669500,31.142500,57.100200L31.121500,57.104200L31.100800,57.109700C27.671000,58.022300,27.362600,62.225900,29.993900,63.661200C30.084700,63.710700,30.176200,63.760400,30.268100,63.810400L30.269300,63.811000C32.386600,64.961900,34.768500,66.256500,35.989600,69.047600C36.734000,70.749000,38.052000,71.995400,39.563600,73.160100C40.150100,73.612000,40.779400,74.061400,41.423300,74.521300C41.608500,74.653600,41.794900,74.786700,41.981900,74.921000C42.824400,75.526300,43.689900,76.163700,44.552600,76.882600C45.302400,77.507500,46.057200,78.120500,46.814100,78.735400C49.638500,81.029600,52.493700,83.348800,55.237900,86.397900C57.041400,88.401800,60.259800,91.021000,63.644700,93.351100C67.026600,95.679200,70.644700,97.767200,73.261100,98.672800C74.130100,98.973700,75.917000,99.987000,78.304300,101.490000C80.666600,102.976000,83.555500,104.902000,86.596300,106.979000C92.677100,111.132000,99.347800,115.877000,103.595000,118.899000C104.828000,119.776000,106.516000,119.565000,107.503000,118.425000L121.975000,101.701000C123.117000,100.382000,122.866000,98.357500,121.383000,97.399200C120.874000,97.070300,120.327000,96.718900,119.748000,96.347300C116.106000,94.009200,111.222000,90.873500,106.855000,87.532000C104.325000,85.596200,101.986000,83.603300,100.170000,81.669400C98.343200,79.722900,97.101700,77.892300,96.683800,76.284800C95.816100,72.947700,95.111200,69.484800,94.444900,66.211300C94.138700,64.707500,93.840800,63.243600,93.538900,61.850300C93.061700,59.647800,92.574600,57.623000,92.031600,55.922600C91.492400,54.234000,90.881200,52.809300,90.131700,51.845700C87.817400,48.870200,84.798000,48.601000,83.226600,48.725800C81.690600,47.766400,79.621800,46.935300,76.894300,46.437200C75.618900,45.378300,74.350000,44.899300,72.970600,44.735100C71.657500,44.578800,70.241200,44.710500,68.677400,44.856000C68.494800,44.873000,68.310200,44.890200,68.123600,44.907100C66.316000,45.071000,64.237800,45.222600,61.698900,45.022700C61.669100,45.020400,61.639700,45.020300,61.610800,45.022400C60.982300,44.327900,60.296100,43.593900,59.521200,42.841900C59.045400,42.380200,58.601500,41.939900,58.177600,41.519400C56.078000,39.436700,54.469000,37.840700,51.909600,36.546600C51.406800,36.292300,50.844400,36.012400,50.242000,35.712600C47.244400,34.220600,43.256500,32.235600,40.689100,30.468600ZM62.717000,46.259400C63.100500,46.689000,63.466500,47.094700,63.824500,47.469700C65.068400,48.772800,66.327100,49.841400,68.189000,50.679300C68.484200,50.812100,68.615800,51.159100,68.483000,51.454300C68.350100,51.749500,68.003100,51.881100,67.707900,51.748300C65.662300,50.827800,64.283400,49.648200,62.976500,48.279100C62.470200,47.748600,61.989700,47.208000,61.490800,46.646700C60.675700,45.729600,59.811500,44.757100,58.704800,43.683200C58.207300,43.200400,57.750000,42.747400,57.319300,42.320600C55.227000,40.247900,53.762500,38.797100,51.380700,37.592700C50.893400,37.346400,50.343200,37.072600,49.749700,36.777300C46.758100,35.288800,42.668700,33.254100,40.024500,31.434200C39.783800,31.268500,39.539500,31.091000,39.290600,30.910200C38.772000,30.533400,38.233500,30.142100,37.665900,29.813100C36.818100,29.321800,36.112100,29.101700,35.570900,29.237000C34.449700,29.517300,33.140300,31.089100,34.128500,34.089200C34.353700,34.773200,34.929500,35.638000,35.809500,36.619000C36.679200,37.588500,37.805800,38.627700,39.073500,39.661000C41.609700,41.728300,44.278600,43.738500,46.878700,45.086700C48.220900,45.782700,50.036400,48.435400,52.182700,50.855900C54.303600,53.247700,56.818500,55.463100,58.035800,58.526200C58.070400,58.579000,58.097100,58.638200,58.113600,58.702800C59.009300,62.202700,59.552800,64.136800,59.308900,66.657200C59.198800,67.794700,58.952900,68.664800,58.543100,69.286500C58.114800,69.936200,57.529600,70.279800,56.852400,70.384000C56.208600,70.482900,55.511900,70.361500,54.826400,70.165200C54.143200,69.969500,53.407300,69.679500,52.669600,69.388500C52.431900,69.315800,52.163300,69.178600,51.893300,69.019100C51.602500,68.847300,51.273500,68.627300,50.922200,68.374900C50.219200,67.869900,49.403600,67.218400,48.587400,66.522400C46.964100,65.138200,45.287800,64.534800,44.470200,63.512800C42.945400,61.606900,38.266000,56.957200,31.382100,58.247900C28.957400,58.908500,28.892900,61.725300,30.555300,62.632100C30.662900,62.690800,30.772700,62.750300,30.884300,62.810800C32.965400,63.938700,35.677100,65.408400,37.063600,68.577700C37.686900,70.002300,38.811200,71.100500,40.279100,72.231500C40.847100,72.669100,41.452900,73.101900,42.093500,73.559400C42.281300,73.693500,42.472100,73.829800,42.665800,73.969000C43.514500,74.578700,44.407400,75.235700,45.303100,75.982100C46.031200,76.588900,46.771600,77.190100,47.519700,77.797600C50.353100,80.098600,53.297700,82.489800,56.109200,85.613700C57.822400,87.517300,60.953800,90.075600,64.309400,92.385500C67.668000,94.697500,71.181200,96.712400,73.644600,97.565100C74.666200,97.918700,76.573300,99.015000,78.928700,100.497000C81.309200,101.996000,84.212000,103.931000,87.257400,106.011000C93.348900,110.171000,100.029000,114.922000,104.275000,117.944000C105.011000,118.468000,106.022000,118.344000,106.617000,117.658000L121.089000,100.934000C121.778000,100.137000,121.614000,98.944300,120.747000,98.383800C120.243000,98.058000,119.699000,97.709000,119.123000,97.339300L119.121000,97.337800C115.482000,95.001600,110.552000,91.836700,106.143000,88.463000C103.588000,86.508200,101.193000,84.471400,99.315600,82.471700C97.450400,80.484600,96.042700,78.477900,95.549200,76.579800C94.673600,73.212200,93.957400,69.694100,93.287900,66.405500C92.983500,64.910500,92.688800,63.463000,92.393200,62.098600C91.918000,59.905000,91.440300,57.924600,90.914900,56.279200C90.385700,54.622000,89.824600,53.360200,89.206400,52.565400C87.829500,50.795100,86.176600,50.144300,84.845600,49.947200C85.987700,50.994700,86.631500,52.088700,86.909100,53.014000C87.002100,53.324100,86.826100,53.650800,86.516100,53.743900C86.206000,53.836900,85.879300,53.660900,85.786300,53.350900C85.337700,51.855600,83.434900,49.305100,78.412000,47.974200C79.417800,49.177700,80.454300,50.784000,81.589300,52.906000C81.742000,53.191400,81.634400,53.546600,81.348900,53.699300C81.063500,53.852000,80.708300,53.744300,80.555700,53.458900C79.004500,50.558800,77.693600,48.743000,76.461000,47.614500C76.428300,47.584600,76.395700,47.555200,76.363200,47.526200C76.221900,47.477800,76.108200,47.378200,76.039700,47.252700C74.980000,46.403000,73.954500,46.032800,72.832000,45.899100C71.650400,45.758500,70.365300,45.877400,68.771400,46.024800C68.594600,46.041200,68.414100,46.057900,68.229400,46.074600C66.665000,46.216400,64.859600,46.353200,62.717000,46.259400Z" opacity="0" clip-rule="evenodd" fill="url(#e1j02f2b9xfqh7-fill)" fill-rule="evenodd" stroke="none" stroke-width="1"/><path id="e1j02f2b9xfqh8" d="M44.781500,68.689300C43.103500,66.876200,37.972600,62.442400,31.223100,64.203200C28.850500,65.031500,28.982900,67.846000,30.704500,68.634400C30.816000,68.685500,30.929700,68.737100,31.045200,68.789700C33.200000,69.769500,36.007700,71.046300,37.612300,74.111000C37.990300,74.833100,38.754500,75.562200,39.726900,76.269200C40.687900,76.967800,41.789600,77.601200,42.779200,78.153700C42.783400,78.156000,42.787600,78.158400,42.791800,78.160900C47.353900,80.672200,55.328900,85.240700,61.403400,89.679700C66.448900,93.366800,70.962100,95.842300,74.690700,97.816300C75.081000,98.022900,75.463700,98.224600,75.838400,98.421900C79.012100,100.094000,81.609400,101.462000,83.330600,103.002000C84.661200,104.192000,88.180400,106.751000,92.248000,109.605000C96.300500,112.448000,100.858000,115.557000,104.234000,117.832000C104.961000,118.323000,105.938000,118.197000,106.523000,117.536000L121.136000,101.017000C121.894000,100.159000,121.656000,98.785500,120.635000,98.204400C116.884000,96.068900,110.958000,92.379200,105.241000,87.878200C100.582000,84.210700,97.925300,80.713700,96.147600,76.407200C94.383900,72.134500,93.495400,67.081600,92.326500,60.360800C91.403400,55.052700,89.595200,52.253200,87.811500,50.868300C86.570900,49.905000,85.311500,49.600700,84.292300,49.625100C85.219200,50.469900,86.173200,51.541100,87.129700,52.887300C87.317200,53.151200,87.255300,53.517100,86.991400,53.704600C86.727500,53.892100,86.361600,53.830200,86.174100,53.566300C84.928600,51.813300,83.709400,50.579500,82.585200,49.725500C80.878600,48.429000,79.400100,48.010600,78.356900,47.966000C79.977200,49.317900,81.008500,50.858100,81.555300,53.087200C81.632400,53.401500,81.440000,53.718900,81.125600,53.796000C80.811200,53.873100,80.493900,53.680800,80.416800,53.366400C79.833400,50.988100,78.656900,49.519500,76.551000,48.071600C74.218100,46.467400,72.009500,46.277800,69.295200,46.071100L69.214400,46.064900C66.913000,45.889800,64.301400,45.691100,61.137200,44.529700C61.680400,45.271100,62.196300,45.974100,62.724000,46.641600C63.976000,48.225100,65.265000,49.569000,67.019600,50.613300C67.297800,50.778800,67.389000,51.138500,67.223500,51.416700C67.057900,51.694900,66.698200,51.786200,66.420100,51.620600C64.492400,50.473400,63.099700,49.007000,61.804400,47.368600C61.251700,46.669500,60.711400,45.932000,60.156900,45.175200C60.064300,45.048800,59.971100,44.921600,59.877500,44.794200C59.221300,43.900200,58.534300,42.976800,57.758600,42.030100C55.221900,38.934000,53.095300,36.533900,50.393300,34.755400C47.570000,32.897000,43.055500,29.050200,40.202100,26.563600C39.981800,26.371600,39.759200,26.167500,39.532500,25.959500C39.060100,25.526100,38.569700,25.076200,38.043100,24.684800C37.256700,24.100200,36.580400,23.801200,36.027400,23.874100C34.881500,24.025000,33.401800,25.437700,34.042300,28.530700C34.185300,29.221300,34.647200,30.047800,35.413700,31.025900C36.172500,31.994200,37.185500,33.056900,38.361800,34.220200C39.015800,34.866900,39.719900,35.544200,40.453600,36.249800L40.453900,36.250200C42.339400,38.063700,44.420200,40.065100,46.347400,42.219300C47.334500,43.322700,48.949800,45.845500,50.528500,48.892800C51.969000,51.673100,53.404900,54.939700,54.325900,58.047600C54.353400,58.094200,54.374900,58.145500,54.389000,58.200600C54.433200,58.373600,54.475700,58.545200,54.516400,58.715400C54.540400,58.802900,54.563900,58.890200,54.587000,58.977400C54.597900,59.018600,54.604100,59.059900,54.606000,59.100800C55.308200,62.207600,55.416200,64.853700,55.193500,67.155000C55.043300,68.706900,54.671200,69.804000,53.989800,70.458200C53.272100,71.147100,52.349100,71.222600,51.432800,71.066400C50.529400,70.912500,49.504300,70.512300,48.455700,70.094200L48.248000,70.011300C47.238800,69.608400,46.179300,69.185300,45.070700,68.874900C44.953500,68.842000,44.854600,68.775800,44.781500,68.689300Z" opacity="0" clip-rule="evenodd" fill="url(#e1j02f2b9xfqh8-fill)" fill-rule="evenodd" stroke="none" stroke-width="1"/><path id="e1j02f2b9xfqh9" d="M40.384900,25.149800L40.385000,25.149900C40.597700,25.344800,40.795600,25.526200,40.972500,25.680300C43.841100,28.180100,48.293700,31.970200,51.038100,33.776700C53.903700,35.662900,56.128100,38.190600,58.665700,41.287700C59.065200,41.775300,59.441000,42.255900,59.799500,42.727100C59.843000,42.735700,59.886100,42.749300,59.928300,42.768400C63.683800,44.468800,66.639900,44.693800,69.324100,44.898100L69.384500,44.902700C72.003900,45.102200,74.437800,45.291700,76.970400,46.942000C78.282800,46.571000,80.524900,46.781900,83.056500,48.615800C84.500500,48.248600,86.571100,48.421400,88.530700,49.942800C90.625200,51.569100,92.529200,54.683700,93.481700,60.160400C94.657400,66.920500,95.527200,71.831900,97.231500,75.960400C98.921700,80.055000,101.442000,83.396200,105.966000,86.957600C111.626000,91.412900,117.499000,95.070700,121.215000,97.186100C122.857000,98.120700,123.285000,100.357000,122.014000,101.794000L107.401000,118.313000C106.430000,119.411000,104.798000,119.627000,103.579000,118.805000C100.199000,116.527000,95.635500,113.414000,91.575000,110.565000C87.529500,107.727000,83.943400,105.123000,82.549200,103.876000C80.943300,102.439000,78.487000,101.144000,75.265900,99.446000L75.265700,99.445900L75.265600,99.445800C74.901000,99.253600,74.526600,99.056200,74.142500,98.852900C70.398000,96.870500,65.826100,94.363900,60.712000,90.626700C54.694600,86.229300,46.763400,81.685200,42.210600,79.179400C42.204100,79.175900,42.197800,79.172200,42.191500,79.168400C41.204100,78.617000,40.055100,77.957400,39.037900,77.217800C38.026400,76.482500,37.080800,75.623200,36.574000,74.655200C35.160900,71.956200,32.694400,70.831100,30.501900,69.830900C30.406200,69.787300,30.311200,69.743900,30.216700,69.700700C27.491600,68.452700,27.505600,64.237800,30.863300,63.087900L30.883600,63.080900L30.904300,63.075500C38.197700,61.159600,43.697600,65.834900,45.547300,67.792200C46.660100,68.115100,47.718500,68.537900,48.672100,68.918800L48.672200,68.918800L48.672300,68.918900L48.890100,69.005800C49.966800,69.435100,50.871900,69.782100,51.630000,69.911300C52.375200,70.038300,52.845100,69.932800,53.178200,69.613000C53.547500,69.258500,53.884100,68.519000,54.026900,67.042500C54.245400,64.784900,54.130300,62.151400,53.380900,59.007000C52.504700,55.816300,51.007100,52.364900,49.487900,49.432500C47.919400,46.405000,46.359000,43.990600,45.474000,43.001400C43.578100,40.882200,41.549000,38.930500,39.673800,37.126900L39.673700,37.126900C38.931700,36.413200,38.213800,35.722700,37.537800,35.054200C36.354500,33.884000,35.297800,32.778600,34.491300,31.749500C33.692500,30.730100,33.093600,29.729700,32.894700,28.768900C32.167400,25.256600,33.825800,22.982200,35.874500,22.712300C36.918800,22.574700,37.927100,23.138100,38.742800,23.744500C39.317900,24.172000,39.891200,24.697400,40.384900,25.149800ZM44.781700,68.689800C43.103700,66.876600,37.972900,62.442900,31.223400,64.203700C28.850800,65.032000,28.983100,67.846400,30.704800,68.634900C30.816300,68.685900,30.930000,68.737600,31.045500,68.790200C33.200300,69.770000,36.008000,71.046700,37.612500,74.111500C37.990600,74.833500,38.754800,75.562700,39.727200,76.269700C40.688100,76.968300,41.789800,77.601600,42.779500,78.154100C42.783700,78.156500,42.787900,78.158900,42.792100,78.161400C47.354100,80.672700,55.329200,85.241100,61.403700,89.680200C66.449200,93.367300,70.962300,95.842800,74.691000,97.816800C75.081200,98.023400,75.464000,98.225000,75.838700,98.422400C79.012300,100.094000,81.609700,101.462000,83.330900,103.002000C84.661500,104.193000,88.180700,106.752000,92.248300,109.606000C96.300800,112.449000,100.858000,115.557000,104.234000,117.833000C104.961000,118.323000,105.938000,118.197000,106.523000,117.536000L121.136000,101.017000C121.894000,100.160000,121.656000,98.786000,120.635000,98.204900C116.884000,96.069400,110.959000,92.379700,105.241000,87.878700C100.582000,84.211200,97.925600,80.714200,96.147900,76.407700C94.384200,72.135000,93.495600,67.082100,92.326800,60.361200C91.403600,55.053200,89.595500,52.253700,87.811800,50.868800C86.571200,49.905500,85.311800,49.601200,84.292600,49.625600C85.219400,50.470300,86.173500,51.541600,87.130000,52.887800C87.317500,53.151600,87.255600,53.517600,86.991700,53.705100C86.727800,53.892600,86.361900,53.830600,86.174400,53.566700C84.928800,51.813700,83.709700,50.579900,82.585500,49.726000C80.878800,48.429500,79.400400,48.011100,78.357100,47.966500C79.977400,49.318300,81.008800,50.858600,81.555500,53.087600C81.632600,53.402000,81.440300,53.719400,81.125900,53.796500C80.811500,53.873600,80.494100,53.681300,80.417000,53.366900C79.833600,50.988600,78.657100,49.520000,76.551300,48.072000C74.218400,46.467900,72.009700,46.278300,69.295400,46.071600L69.214700,46.065400C66.913300,45.890300,64.301700,45.691600,61.137500,44.530200C61.680700,45.271500,62.196600,45.974600,62.724200,46.642000C63.976200,48.225600,65.265300,49.569500,67.019800,50.613700C67.298000,50.779300,67.389300,51.139000,67.223800,51.417200C67.058200,51.695400,66.698500,51.786700,66.420300,51.621100C64.492700,50.473900,63.100000,49.007400,61.804700,47.369100C61.251900,46.670000,60.711600,45.932500,60.157200,45.175700L60.157000,45.175500L60.157000,45.175400C60.064400,45.049000,59.971300,44.922000,59.877800,44.794600C59.221500,43.900700,58.534500,42.977300,57.758900,42.030600C55.222100,38.934500,53.095500,36.534400,50.393500,34.755900C47.570300,32.897500,43.055800,29.050700,40.202400,26.564100C39.982000,26.372100,39.759500,26.167900,39.532800,25.960000L39.532800,25.959900C39.060400,25.526600,38.569900,25.076600,38.043400,24.685200C37.257000,24.100700,36.580600,23.801700,36.027600,23.874500C34.881700,24.025500,33.402100,25.438200,34.042600,28.531200C34.185600,29.221800,34.647500,30.048200,35.414000,31.026400C36.172700,31.994700,37.185700,33.057400,38.362100,34.220700C39.016100,34.867400,39.720200,35.544600,40.453800,36.250300L40.454100,36.250600L40.454200,36.250600C42.339700,38.064200,44.420400,40.065600,46.347700,42.219800C47.334800,43.323200,48.950000,45.846000,50.528800,48.893300C51.969200,51.673600,53.405200,54.940200,54.326100,58.048000C54.353700,58.094700,54.375100,58.145900,54.389200,58.201000C54.433500,58.374000,54.476000,58.545600,54.516600,58.715900C54.540600,58.803400,54.564100,58.890700,54.587200,58.977900C54.598100,59.019000,54.604300,59.060400,54.606200,59.101200C55.308500,62.208100,55.416500,64.854200,55.193800,67.155500C55.043600,68.707400,54.671500,69.804500,53.990000,70.458700C53.272400,71.147600,52.349400,71.223000,51.433100,71.066900C50.529700,70.912900,49.504600,70.512800,48.456000,70.094700L48.248300,70.011800L48.248200,70.011800C47.239000,69.608800,46.179500,69.185800,45.071000,68.875400C44.953700,68.842500,44.854800,68.776300,44.781700,68.689800Z" opacity="0" clip-rule="evenodd" fill="url(#e1j02f2b9xfqh9-fill)" fill-rule="evenodd" stroke="none" stroke-width="1"/><path id="e1j02f2b9xfqh10" d="M36.097700,19.539300C35.123900,20.115500,34.512600,21.262700,34.670900,22.371100C34.768200,23.052500,34.847900,23.555100,35.048900,24.149800C35.251000,24.747800,35.583800,25.460600,36.208600,26.529800C37.464100,28.678600,39.841400,32.173100,44.536000,38.921600C53.958400,52.466300,55.793000,61.201100,55.188600,67.447000C55.036300,69.021000,54.621400,70.154100,53.906600,70.884000C53.174200,71.631900,52.221400,71.862300,51.219100,71.835200C50.231400,71.808500,49.129000,71.531000,48.007400,71.193900C47.537900,71.052900,47.071900,70.903700,46.602200,70.753300C45.911100,70.532100,45.212200,70.308300,44.483000,70.104100C44.408300,70.083300,44.338600,70.047800,44.277800,69.999800C40.622600,67.114100,37.693200,65.953400,35.388500,65.676900C33.094500,65.401600,31.363900,65.995400,30.083200,66.727200C28.834500,67.440800,28.458300,68.213800,28.423900,68.816100C28.389100,69.424100,28.691400,70.014100,29.136200,70.410000C31.838200,71.667300,33.525100,72.607700,34.761400,73.541200C36.022700,74.493600,36.794000,75.423500,37.685700,76.612400C37.843700,76.823100,38.153800,77.092800,38.652700,77.423200C39.141800,77.747100,39.770700,78.102600,40.525100,78.495700C41.631000,79.071900,42.973600,79.712100,44.493900,80.437100C45.052300,80.703400,45.634800,80.981200,46.238300,81.271400C50.712400,83.422800,56.272800,86.226100,61.398500,89.971800C66.444000,93.658900,70.957200,96.134400,74.685800,98.108400C75.076100,98.315000,75.458800,98.516600,75.833500,98.714000C79.007200,100.386000,81.604500,101.754000,83.325700,103.294000C84.656300,104.484000,88.175600,107.043000,92.243100,109.897000C96.295700,112.740000,100.853000,115.849000,104.229000,118.125000C104.956000,118.615000,105.933000,118.489000,106.518000,117.828000L121.131000,101.309000C121.889000,100.451000,121.651000,99.077600,120.630000,98.496500C116.879000,96.361000,110.954000,92.671300,105.236000,88.170300C100.577000,84.502800,97.920400,81.005800,96.142700,76.699200C94.379000,72.426600,93.490500,67.373700,92.321600,60.652800C91.398500,55.344800,89.590400,52.545300,87.806600,51.160400C86.566000,50.197100,85.306600,49.892700,84.287400,49.917200C85.214300,50.761900,86.168300,51.833200,87.124800,53.179400C87.312300,53.443200,87.250400,53.809200,86.986500,53.996600C86.722700,54.184100,86.356700,54.122200,86.169300,53.858300C84.923700,52.105300,83.704500,50.871500,82.580300,50.017500C80.873700,48.721100,79.395200,48.302700,78.352000,48.258000C79.972300,49.609900,81.003600,51.150200,81.550400,53.379200C81.627500,53.693600,81.435100,54.011000,81.120800,54.088100C80.806400,54.165200,80.489000,53.972900,80.411900,53.658500C79.828500,51.280100,78.652000,49.811600,76.546100,48.363600C74.204800,46.753700,72.047000,46.509500,69.399800,46.244600L69.271700,46.231800C67.071000,46.011800,64.575900,45.762500,61.523000,44.645200C62.001000,45.327000,62.459200,45.959900,62.886600,46.520800C64.114900,48.133000,65.294700,49.359500,66.216200,50.186100C66.677500,50.599900,67.069100,50.909100,67.365200,51.115000C67.513800,51.218300,67.631700,51.290900,67.717500,51.336900C67.772800,51.366600,67.801200,51.377700,67.807900,51.380600C68.112400,51.439800,68.320100,51.728200,68.275700,52.038700C68.230000,52.359200,67.933100,52.581900,67.612600,52.536100C67.446700,52.512400,67.283400,52.434300,67.163500,52.370000C67.025600,52.296100,66.868000,52.197000,66.696000,52.077500C66.351100,51.837600,65.921300,51.496400,65.433400,51.058700C64.456400,50.182300,63.226600,48.901400,61.954100,47.231300C61.185200,46.222100,60.326900,44.996500,59.442500,43.687400C58.316500,42.020500,57.140500,40.206800,56.045500,38.517900C55.799700,38.138900,55.558100,37.766200,55.322000,37.402900C54.026700,35.409500,52.909200,33.714500,52.186900,32.775500C51.435700,31.799000,49.191400,29.503500,46.647200,26.993700C44.119200,24.499800,41.338200,21.835900,39.549400,20.144600L39.547500,20.142900C38.299600,18.952700,37.023000,18.991800,36.097700,19.539300Z" opacity="0" clip-rule="evenodd" fill="url(#e1j02f2b9xfqh10-fill)" fill-rule="evenodd" stroke="none" stroke-width="1"/><path id="e1j02f2b9xfqh11" d="M36.097700,19.539800C35.123900,20.116000,34.512500,21.263200,34.670900,22.371500C34.768200,23.053000,34.847800,23.555600,35.048900,24.150300C35.251000,24.748200,35.583800,25.461000,36.208600,26.530300C37.464000,28.679100,39.841300,32.173500,44.536000,38.922100C53.958300,52.466700,55.793000,61.201600,55.188600,67.447500C55.036300,69.021400,54.621400,70.154600,53.906600,70.884500C53.174100,71.632300,52.221400,71.862700,51.219100,71.835700C50.231400,71.809000,49.129000,71.531500,48.007400,71.194400C47.537900,71.053300,47.071900,70.904100,46.602100,70.753800C45.911100,70.532500,45.212100,70.308800,44.482900,70.104600C44.408300,70.083700,44.338600,70.048200,44.277800,70.000200C40.622600,67.114600,37.693200,65.953900,35.388500,65.677300C33.094500,65.402100,31.363800,65.995900,30.083200,66.727700C28.834500,67.441200,28.458200,68.214300,28.423800,68.816500C28.389100,69.424600,28.691400,70.014600,29.136100,70.410500C31.838200,71.667800,33.525100,72.608100,34.761400,73.541700C36.022600,74.494000,36.794000,75.423900,37.685600,76.612800C37.843700,76.823600,38.153700,77.093300,38.652700,77.423700C39.141800,77.747600,39.770600,78.103100,40.525100,78.496200C41.631000,79.072400,42.973600,79.712600,44.493900,80.437600C45.052300,80.703900,45.634800,80.981600,46.238300,81.271800C50.712300,83.423300,56.272800,86.226500,61.398500,89.972300C66.444000,93.659400,70.957100,96.134900,74.685800,98.108900C75.076100,98.315500,75.458800,98.517100,75.833500,98.714500C79.007100,100.386000,81.604500,101.754000,83.325700,103.294000C84.656300,104.485000,88.175500,107.044000,92.243100,109.898000C96.295600,112.741000,100.853000,115.849000,104.229000,118.125000C104.956000,118.615000,105.933000,118.489000,106.518000,117.828000L121.131000,101.309000C121.889000,100.452000,121.651000,99.078000,120.630000,98.496900C116.879000,96.361500,110.953000,92.671800,105.236000,88.170800C100.577000,84.503200,97.920400,81.006200,96.142700,76.699700C94.379000,72.427000,93.490400,67.374200,92.321600,60.653300C91.398500,55.345200,89.590300,52.545800,87.806600,51.160800C86.566000,50.197600,85.306600,49.893200,84.287400,49.917700C85.214200,50.762400,86.168300,51.833600,87.124800,53.179800C87.312300,53.443700,87.250400,53.809600,86.986500,53.997100C86.722600,54.184600,86.356700,54.122700,86.169200,53.858800C84.923700,52.105800,83.704500,50.872000,82.580300,50.018000C80.873600,48.721500,79.395200,48.303200,78.352000,48.258500C79.972300,49.610400,81.003600,51.150700,81.550400,53.379700C81.627500,53.694100,81.435100,54.011500,81.120700,54.088600C80.806300,54.165700,80.489000,53.973300,80.411800,53.658900C79.828500,51.280600,78.651900,49.812100,76.546100,48.364100C74.204700,46.754200,72.047000,46.510000,69.399800,46.245100L69.271700,46.232300C67.071000,46.012300,64.575900,45.762900,61.523000,44.645700C62.001000,45.327500,62.459200,45.960400,62.886500,46.521300C64.114900,48.133500,65.294700,49.360000,66.216200,50.186600C66.677400,50.600400,67.069100,50.909600,67.365200,51.115400C67.513800,51.218800,67.631600,51.291400,67.717500,51.337400C67.772800,51.367100,67.801200,51.378200,67.807800,51.381000C68.112400,51.440200,68.320100,51.728700,68.275700,52.039200C68.229900,52.359700,67.933100,52.582300,67.612600,52.536500C67.446700,52.512800,67.283300,52.434800,67.163500,52.370500C67.025500,52.296500,66.867900,52.197500,66.696000,52.077900C66.351100,51.838100,65.921300,51.496900,65.433400,51.059200C64.456400,50.182700,63.226600,48.901800,61.954100,47.231700C61.185200,46.222600,60.326900,44.996900,59.442500,43.687800C58.316500,42.021000,57.140400,40.207200,56.045400,38.518400C55.799700,38.139400,55.558000,37.766700,55.321900,37.403300C54.026700,35.410000,52.909200,33.714900,52.186900,32.776000C51.435700,31.799500,49.191400,29.504000,46.647200,26.994100C44.119200,24.500200,41.338100,21.836300,39.549300,20.145100L39.547500,20.143300C38.299500,18.953200,37.023000,18.992300,36.097700,19.539800ZM60.320600,42.893500C63.984800,44.525600,66.830000,44.810000,69.404500,45.067400L69.516600,45.078600C72.081200,45.335300,74.445200,45.585600,76.965600,47.234000C78.278000,46.863100,80.519900,47.074100,83.051300,48.907900C84.495300,48.540700,86.566000,48.713400,88.525500,50.234900C90.620000,51.861200,92.524100,54.975700,93.476500,60.452400C94.652200,67.212600,95.522100,72.123900,97.226300,76.252400C98.916500,80.347100,101.437000,83.688300,105.961000,87.249700C111.621000,91.705000,117.494000,95.362800,121.210000,97.478200C122.852000,98.412800,123.280000,100.649000,122.009000,102.086000L107.396000,118.605000C106.425000,119.703000,104.793000,119.919000,103.574000,119.097000C100.194000,116.819000,95.630300,113.706000,91.569800,110.857000C87.524300,108.019000,83.938200,105.415000,82.544000,104.168000C80.938100,102.731000,78.481700,101.436000,75.260500,99.737900C74.895800,99.545600,74.521400,99.348200,74.137300,99.144900C70.392800,97.162500,65.820900,94.655900,60.706900,90.918700C55.673000,87.240100,50.194700,84.475100,45.730200,82.328300C45.138300,82.043600,44.562900,81.769300,44.008200,81.504700C42.480000,80.776000,41.109200,80.122300,39.983400,79.535800C39.214500,79.135100,38.544400,78.757900,38.005500,78.401100C37.476400,78.050700,37.029400,77.691600,36.747800,77.316200C35.881100,76.160600,35.187100,75.332100,34.055000,74.477200C32.909200,73.612000,31.294100,72.704800,28.568700,71.439500C28.522600,71.418000,28.479400,71.390700,28.440300,71.358100C27.742400,70.776500,27.191900,69.826600,27.253500,68.749700C27.316800,67.642400,28.015000,66.559400,29.501600,65.709900C30.956300,64.878700,32.937800,64.202600,35.528100,64.513400C38.086800,64.820500,41.184000,66.083700,44.912000,69.007600C45.612500,69.206600,46.322900,69.433600,47.002200,69.650700C47.468800,69.799900,47.920700,69.944300,48.344800,70.071800C49.457700,70.406300,50.431200,70.641700,51.250800,70.663800C52.055700,70.685600,52.641500,70.500800,53.069100,70.064200C53.514300,69.609600,53.881000,68.789000,54.021800,67.334600C54.589600,61.467200,52.907500,53.008900,43.573700,39.591500C38.890300,32.859100,36.480800,29.320000,35.196400,27.121700C34.551200,26.017400,34.175800,25.228200,33.938300,24.525700C33.699700,23.819900,33.608400,23.223600,33.510400,22.537300C33.278000,20.910400,34.163200,19.322300,35.500800,18.530900C36.886600,17.710900,38.735700,17.749900,40.355600,19.294100C42.148700,20.989500,44.935400,23.658800,47.470500,26.159600C49.989800,28.644900,52.304200,31.005900,53.116100,32.061300C53.873200,33.045500,55.019100,34.785800,56.304900,36.764600C56.542400,37.130200,56.785100,37.504500,57.031600,37.884500C58.096000,39.526100,59.230000,41.275100,60.320600,42.893500Z" opacity="0" clip-rule="evenodd" fill="url(#e1j02f2b9xfqh11-fill)" fill-rule="evenodd" stroke="none" stroke-width="1"/></svg>